name D:\school\WTK\thesis\model\3dpredictsim\Results\MidTarsalJoint\Fal_s1_bCst_PF_Natali2010_ls148_MT_nl_fitted4_MTP_T5_ig24_mtp1_poly.mot
datacolumns 128
datarows 4
range 1.16192035 1.19677796
endheader
time	pelvis_tilt	pelvis_list	pelvis_rotation	pelvis_tx	pelvis_ty	pelvis_tz	hip_flexion_l	hip_adduction_l	hip_rotation_l	hip_flexion_r	hip_adduction_r	hip_rotation_r	knee_angle_l	knee_angle_r	ankle_angle_l	ankle_angle_r	subtalar_angle_l	subtalar_angle_r	mtj_angle_l	mtj_angle_r	mtp_angle_l	mtp_angle_r	lumbar_extension	lumbar_bending	lumbar_rotation	arm_flex_l	arm_add_l	arm_rot_l	arm_flex_r	arm_add_r	arm_rot_r	elbow_flex_l	elbow_flex_r	pro_sup_l	pro_sup_r	glut_med1_l/activation	glut_med2_l/activation	glut_med3_l/activation	glut_min1_l/activation	glut_min2_l/activation	glut_min3_l/activation	semimem_l/activation	semiten_l/activation	bifemlh_l/activation	bifemsh_l/activation	sar_l/activation	add_long_l/activation	add_brev_l/activation	add_mag1_l/activation	add_mag2_l/activation	add_mag3_l/activation	tfl_l/activation	pect_l/activation	grac_l/activation	glut_max1_l/activation	glut_max2_l/activation	glut_max3_l/activation	iliacus_l/activation	psoas_l/activation	quad_fem_l/activation	gem_l/activation	peri_l/activation	rect_fem_l/activation	vas_med_l/activation	vas_int_l/activation	vas_lat_l/activation	med_gas_l/activation	lat_gas_l/activation	soleus_l/activation	tib_post_l/activation	flex_dig_l/activation	flex_hal_l/activation	tib_ant_l/activation	per_brev_l/activation	per_long_l/activation	per_tert_l/activation	ext_dig_l/activation	ext_hal_l/activation	ercspn_l/activation	intobl_l/activation	extobl_l/activation	glut_med1_r/activation	glut_med2_r/activation	glut_med3_r/activation	glut_min1_r/activation	glut_min2_r/activation	glut_min3_r/activation	semimem_r/activation	semiten_r/activation	bifemlh_r/activation	bifemsh_r/activation	sar_r/activation	add_long_r/activation	add_brev_r/activation	add_mag1_r/activation	add_mag2_r/activation	add_mag3_r/activation	tfl_r/activation	pect_r/activation	grac_r/activation	glut_max1_r/activation	glut_max2_r/activation	glut_max3_r/activation	iliacus_r/activation	psoas_r/activation	quad_fem_r/activation	gem_r/activation	peri_r/activation	rect_fem_r/activation	vas_med_r/activation	vas_int_r/activation	vas_lat_r/activation	med_gas_r/activation	lat_gas_r/activation	soleus_r/activation	tib_post_r/activation	flex_dig_r/activation	flex_hal_r/activation	tib_ant_r/activation	per_brev_r/activation	per_long_r/activation	per_tert_r/activation	ext_dig_r/activation	ext_hal_r/activation	ercspn_r/activation	intobl_r/activation	extobl_r/activation	
          1.16192035	         -2.92985171	         -2.34574158	          5.81235708	          1.45240043	          0.91851349	         -0.00244788	        -16.09944313	         -1.14431950	          6.92652401	         28.78646974	          3.69176767	         -1.89815489	         -9.55989143	         -8.35601349	         -1.63310926	          6.47050177	          8.79756602	         -7.00432683	          5.64451592	         -4.26411037	          7.87034420	         12.32193081	         -2.00266011	          0.53028726	         -2.28767430	          5.29363096	        -13.45656573	         17.96000960	         -5.16456846	        -13.45799622	          7.74814176	         35.69206593	         15.52995555	         86.51662706	         86.51662706	          0.27534792	          0.10150391	          0.07124074	          0.28491678	          0.18649811	          0.10390487	          0.05000094	          0.05000015	          0.05000009	          0.05267891	          0.10657161	          0.09845160	          0.06755483	          0.05000159	          0.05000166	          0.05000038	          0.30376888	          0.10157558	          0.05000274	          0.05000072	          0.05000044	          0.05000037	          0.41050881	          0.62041362	          0.05000007	          0.05000028	          0.05350077	          0.26979404	          0.05000022	          0.05000020	          0.05000019	          0.26103809	          0.35401130	          0.34376519	          0.24825704	          0.23133494	          0.30563256	          0.05000001	          0.05968280	          0.13832325	          0.05000011	          0.05000002	          0.05000010	          0.05000001	          0.05000007	          0.05567858	          0.05968265	          0.05968264	          0.05000012	          0.05968267	          0.05968266	          0.05001004	          0.20609403	          0.10434946	          0.13686860	          0.06830000	          0.05000014	          0.16307085	          0.24938082	          0.29573075	          0.23508654	          0.11219649	          0.05000007	          0.05000322	          0.15888680	          0.05000103	          0.07015764	          0.16122822	          0.05000123	          0.05000034	          0.20723427	          0.31509000	          0.14049223	          0.05000011	          0.10666095	          0.10364590	          0.09350312	          0.07166553	          0.07525046	          0.06418248	          0.05000004	          0.05000021	          0.05000033	          0.48845837	          0.27101893	          0.18431807	          0.19663817	          0.50299850	          0.25572859	          0.05732887	          0.11419094	          0.09420279	
          1.17353955	         -2.92936367	         -2.42909154	          6.07269246	          1.47009304	          0.91773431	         -0.00223778	        -15.94608573	         -1.44129636	          6.72733689	         28.06944066	          4.10159330	         -1.63440037	        -11.55659960	         -8.76672527	         -2.23301415	          5.87002132	          9.80001913	         -7.33566832	          4.74202960	         -4.36526762	          9.50768985	         12.21000006	         -1.78903014	          0.72228742	         -2.36047740	          4.93055029	        -13.47153116	         18.18777859	         -6.11496366	        -13.45040855	          7.52474733	         36.96467910	         15.20634558	         86.51662706	         86.51662706	          0.23067665	          0.08503635	          0.05968299	          0.23869315	          0.15624146	          0.08704780	          0.05000127	          0.05000032	          0.05000042	          0.05000006	          0.08928194	          0.17066411	          0.05659516	          0.05968265	          0.05961529	          0.05968267	          0.25448674	          0.08509671	          0.05000087	          0.05000508	          0.05000483	          0.05010026	          0.34390960	          0.56980732	          0.05805762	          0.05963675	          0.05000028	          0.22602382	          0.10108429	          0.16365266	          0.14462333	          0.21868835	          0.29657798	          0.28799416	          0.20798088	          0.19380422	          0.25604810	          0.05000000	          0.05000015	          0.14960243	          0.05000004	          0.05000001	          0.05000006	          0.06459056	          0.06705297	          0.06989771	          0.05000000	          0.05000001	          0.09491784	          0.05000002	          0.05000002	          0.05000002	          0.17265822	          0.08742027	          0.11466362	          0.05721935	          0.05001144	          0.13661499	          0.32654816	          0.32269252	          0.21261824	          0.11395752	          0.05000011	          0.07694987	          0.15973034	          0.05000668	          0.10549703	          0.14038509	          0.05000005	          0.05000037	          0.54471502	          0.26397113	          0.11769939	          0.05968273	          0.09586759	          0.09925171	          0.07840891	          0.06957026	          0.07124035	          0.06336143	          0.05968270	          0.05036050	          0.05968247	          0.49771618	          0.29463737	          0.23242418	          0.16473658	          0.45278773	          0.21424029	          0.05000000	          0.09566508	          0.07891972	
          1.18515875	         -2.92371106	         -2.51303494	          6.29510175	          1.48810054	          0.91691896	         -0.00205550	        -15.77498797	         -1.73445732	          6.52570650	         27.23805658	          4.38197943	         -1.34682696	        -13.56844451	         -9.24950015	         -2.86937329	          5.33335695	         10.74340189	         -7.66271401	          3.51132645	         -4.60472839	         11.36660099	         12.25389533	         -1.55408622	          0.92283023	         -2.41997452	          4.47523826	        -13.48422154	         18.31660493	         -7.08440180	        -13.45428975	          7.36936087	         38.23633504	         14.91866394	         86.51662706	         86.51662706	          0.35073414	          0.07124044	          0.05000036	          0.31555829	          0.13089356	          0.07292556	          0.05000079	          0.05000008	          0.05000006	          0.05000018	          0.07479733	          0.14297632	          0.05000033	          0.05000023	          0.05000029	          0.05000018	          0.23838413	          0.07129220	          0.05000101	          0.05000105	          0.05000053	          0.05000025	          0.28811517	          0.53347661	          0.05000015	          0.05000054	          0.05000048	          0.18935471	          0.08468486	          0.13710241	          0.12116031	          0.18320926	          0.24846240	          0.24127118	          0.17423894	          0.16236227	          0.21450795	          0.05132138	          0.06478202	          0.16624536	          0.05000018	          0.09261999	          0.05000020	          0.05995579	          0.05617457	          0.05855780	          0.24406368	          0.25504353	          0.27182180	          0.42884238	          0.28322965	          0.20012470	          0.14464694	          0.07323777	          0.09606119	          0.06083246	          0.05000039	          0.11445115	          0.27357035	          0.27034026	          0.17812401	          0.11131876	          0.05000025	          0.06446602	          0.13381643	          0.12612669	          0.11968642	          0.11760965	          0.05000119	          0.05000024	          0.45634272	          0.22114559	          0.23252348	          0.05000008	          0.08031449	          0.08314959	          0.06568823	          0.05828349	          0.05968263	          0.05308195	          0.05000006	          0.05000015	          0.05000021	          0.56199328	          0.37672613	          0.19471738	          0.34916488	          0.54244212	          0.20849259	          0.06461849	          0.11826966	          0.06611612	
          1.19677796	         -2.91531580	         -2.58654445	          6.47569017	          1.50618629	          0.91613977	         -0.00184354	        -15.53797948	         -2.01242081	          6.34863190	         26.37945785	          4.62232144	         -1.06546318	        -15.65122479	         -9.67805656	         -3.49569065	          4.71760822	         11.64688225	         -7.98097003	          1.87869994	         -4.53943479	         13.51074787	         12.32434542	         -1.32343477	          1.11895811	         -2.46936476	          3.97119472	        -13.50302143	         18.37655220	         -8.02068520	        -13.45857521	          7.27684903	         39.47446222	         14.64069601	         86.51662706	         86.51662706	          0.30167576	          0.05968271	          0.05000007	          0.26436361	          0.10965796	          0.06109444	          0.05000069	          0.05000007	          0.05000008	          0.05000004	          0.06266258	          0.13109852	          0.09547134	          0.05014208	          0.05001145	          0.08818612	          0.19970977	          0.05972658	          0.05000027	          0.05000160	          0.05000113	          0.05000105	          0.24137257	          0.47613142	          0.05000015	          0.05000049	          0.05000008	          0.15863459	          0.12115285	          0.11664604	          0.10150418	          0.15348615	          0.20815289	          0.20212834	          0.14597114	          0.13602133	          0.17970710	          0.11284913	          0.12592170	          0.13927451	          0.05000143	          0.15952889	          0.05000301	          0.07484577	          0.05000000	          0.05000001	          0.34571894	          0.35920832	          0.39411602	          0.35926883	          0.23727996	          0.26428387	          0.12118009	          0.07049590	          0.08085131	          0.05096340	          0.05000043	          0.09588309	          0.22918745	          0.22648146	          0.14922611	          0.14502480	          0.05000019	          0.05400752	          0.11210673	          0.23226792	          0.18316180	          0.14381736	          0.05000003	          0.05000003	          0.38230759	          0.18526788	          0.19480026	          0.05000005	          0.11536559	          0.12195964	          0.09022901	          0.05000001	          0.05000004	          0.05000000	          0.05000004	          0.05000013	          0.05000012	          0.64867361	          0.37333484	          0.20588417	          0.53295265	          0.57660967	          0.33589184	          0.08575890	          0.09908208	          0.05538972	
